<?xml version="1.0" standalone="no"?>
<!DOCTYPE svg PUBLIC "-//W3C//DTD SVG 20010904//EN"
 "http://www.w3.org/TR/2001/REC-SVG-20010904/DTD/svg10.dtd">
<svg version="1.0" xmlns="http://www.w3.org/2000/svg"
 width="786.000000pt" height="960.000000pt" viewBox="0 0 786.000000 960.000000"
 preserveAspectRatio="xMidYMid meet">
<metadata>
Created by potrace 1.16, written by Peter Selinger 2001-2019
</metadata>
<g transform="translate(0.000000,960.000000) scale(0.100000,-0.100000)"
fill="#000000" stroke="none">
<path d="M3696 8285 c-19 -15 -19 -16 3 -55 31 -55 32 -115 2 -178 -23 -49
-23 -52 -7 -77 l16 -25 205 0 c172 0 206 2 219 16 21 21 20 53 -4 89 -28 42
-27 125 2 177 22 39 22 40 3 54 -18 13 -21 12 -37 -8 -10 -13 -25 -47 -34 -75
-8 -29 -19 -53 -23 -53 -5 0 -28 7 -51 15 -23 8 -57 15 -75 15 -18 0 -52 -7
-75 -15 -57 -20 -57 -20 -65 18 -6 26 -51 118 -58 117 -1 0 -11 -7 -21 -15z"/>
<path d="M3414 8023 c-4 -21 -8 -71 -8 -110 l-1 -73 -38 0 c-48 0 -55 -17 -32
-78 27 -71 78 -151 132 -206 l48 -49 -40 7 c-38 7 -164 34 -515 111 -85 19
-247 54 -360 79 -113 25 -349 77 -525 115 -176 39 -400 88 -498 110 -98 21
-187 36 -198 34 -25 -7 -18 -35 29 -128 34 -66 70 -106 259 -288 9 -8 57 -57
107 -108 186 -191 432 -331 693 -396 93 -23 127 -27 248 -26 82 1 167 8 205
16 36 8 66 14 68 12 1 -1 -19 -20 -45 -41 -207 -169 -381 -409 -471 -649 -19
-49 -35 -94 -36 -100 -1 -5 -7 -26 -13 -45 -38 -115 -48 -206 -48 -420 0 -188
3 -229 23 -324 88 -412 324 -759 672 -990 154 -103 317 -175 498 -221 95 -24
105 -25 490 -25 215 0 392 3 392 8 0 4 -29 22 -65 41 l-65 33 -338 -3 c-295
-2 -346 0 -407 15 -38 10 -79 21 -90 25 -11 5 -38 14 -60 21 -107 33 -325 156
-430 242 -109 89 -302 304 -293 327 1 5 43 52 92 104 l88 95 122 22 c66 12
149 28 184 36 35 8 72 14 83 14 20 0 129 -67 129 -80 0 -3 -25 -55 -56 -115
-30 -59 -51 -111 -47 -115 13 -11 145 -30 159 -22 13 8 144 261 144 280 0 10
-48 49 -112 89 -16 10 -28 20 -28 23 1 6 158 83 430 210 107 50 203 95 213
101 27 15 31 5 13 -30 -9 -17 -19 -51 -22 -75 -6 -44 -6 -46 28 -62 32 -15 66
-15 359 -8 l324 9 8 54 c5 36 4 57 -3 61 -6 4 -122 5 -257 2 -239 -5 -246 -4
-238 14 4 10 17 46 27 79 12 35 31 69 46 82 77 65 516 170 880 209 117 12 157
13 165 5 8 -8 12 -55 11 -139 0 -120 -2 -132 -34 -212 -18 -47 -39 -92 -46
-100 -6 -8 -33 -55 -58 -105 -26 -49 -62 -118 -81 -152 -36 -65 -35 -73 13
-87 18 -6 25 -2 40 24 43 80 72 98 92 60 9 -16 5 -31 -19 -74 l-30 -55 26 -16
c13 -9 30 -14 37 -12 12 5 158 273 170 313 4 12 -3 59 -15 105 -17 67 -23 130
-29 314 -9 254 -18 309 -81 503 -89 271 -266 531 -484 710 l-40 33 75 -8 c256
-28 486 22 737 159 127 70 290 195 365 280 67 77 74 83 157 152 29 25 77 73
107 108 89 106 148 248 103 248 -6 0 -72 -14 -147 -31 -75 -16 -189 -41 -252
-55 -63 -14 -153 -34 -200 -44 -47 -11 -260 -58 -475 -105 -544 -119 -740
-162 -891 -196 -165 -36 -179 -37 -141 -4 78 69 179 248 163 290 -3 9 -18 15
-41 15 l-35 0 0 48 c0 45 -16 161 -23 168 -1 2 -12 1 -22 -2 -19 -5 -20 -15
-20 -142 0 -131 -2 -141 -32 -217 -37 -90 -98 -167 -168 -212 -45 -28 -62 -51
-48 -63 4 -4 33 -20 63 -36 274 -142 507 -463 537 -736 6 -56 7 -58 35 -58 30
0 30 0 26 53 l-3 52 37 3 c50 4 55 25 25 110 -24 68 -114 219 -157 262 -39 39
-14 32 61 -18 175 -116 320 -254 421 -402 29 -41 54 -77 57 -80 12 -10 99
-187 116 -235 10 -27 22 -54 25 -60 7 -10 46 -159 54 -205 2 -14 6 -32 8 -40
2 -12 -9 -16 -52 -18 -402 -18 -918 -111 -1083 -194 -37 -18 -38 -18 -142 7
-58 14 -114 25 -125 25 -11 0 -20 4 -20 9 0 5 50 59 111 121 60 61 109 116
107 122 -4 12 -101 47 -129 48 -9 0 -37 -21 -62 -47 -26 -27 -96 -95 -157
-153 -60 -57 -110 -112 -110 -121 0 -30 34 -47 158 -78 68 -17 126 -31 130
-31 11 -1 -41 -40 -53 -40 -5 0 -23 -7 -40 -16 -16 -9 -50 -24 -75 -34 -25
-10 -97 -43 -161 -74 -64 -31 -119 -56 -122 -56 -4 0 -48 -20 -98 -45 -51 -25
-95 -45 -100 -45 -4 0 -11 25 -14 55 -4 30 -12 58 -19 63 -18 14 -95 39 -176
57 -41 10 -79 21 -85 25 -19 14 -106 30 -119 23 -15 -9 -66 -68 -66 -77 0 -3
19 -10 43 -16 23 -6 78 -24 123 -40 44 -17 87 -30 97 -30 18 0 30 -47 25 -100
l-3 -34 -130 -22 c-245 -43 -294 -53 -317 -65 -36 -18 -91 -81 -120 -136 -16
-32 -25 -29 -50 20 -105 200 -153 427 -145 692 5 187 6 197 38 323 33 132 143
389 180 422 3 3 16 23 29 45 14 22 31 49 40 59 53 66 136 158 181 202 58 56
200 166 206 160 2 -2 -13 -27 -33 -57 -49 -72 -78 -133 -98 -198 -18 -63 -11
-78 37 -83 32 -3 32 -3 29 -55 -4 -53 -4 -53 26 -53 29 0 30 2 37 58 26 226
164 452 390 642 17 13 66 46 110 72 125 74 125 75 61 113 -141 82 -224 267
-214 475 3 55 2 100 -3 100 -4 0 -14 3 -23 6 -11 4 -17 -4 -22 -33z"/>
<path d="M3618 7874 c-32 -17 -58 -62 -58 -100 0 -71 86 -183 177 -231 80 -42
144 -54 226 -43 90 13 151 44 215 107 107 106 121 222 32 268 -42 22 -552 21
-592 -1z"/>
<path d="M3855 7191 c-145 -66 -325 -422 -325 -641 0 -96 21 -151 77 -201 88
-79 215 -84 309 -13 l47 36 26 -21 c61 -49 104 -64 173 -63 81 1 131 24 181
82 86 101 75 274 -34 520 -65 147 -151 255 -239 300 -52 26 -159 27 -215 1z
m195 -116 c107 -74 240 -365 240 -524 0 -80 -21 -120 -75 -145 -98 -47 -190
28 -285 229 -64 136 -84 210 -85 305 0 68 4 91 20 114 40 60 116 69 185 21z
m-286 -332 c0 -13 4 -23 9 -23 4 0 7 -11 7 -25 0 -14 5 -25 10 -25 6 0 10 -6
9 -12 -2 -12 14 -56 32 -88 45 -80 52 -99 39 -115 -7 -8 -15 -13 -17 -11 -3 3
-17 -6 -32 -20 -22 -21 -32 -24 -65 -19 -52 8 -76 22 -76 45 0 11 -7 20 -15
20 -20 0 -30 46 -15 65 7 9 10 19 6 22 -4 4 -11 1 -16 -7 -13 -20 -13 -3 1 60
6 27 14 48 18 45 5 -2 6 8 5 23 -2 15 -1 21 2 14 4 -9 10 -5 20 13 16 31 19
48 4 25 -18 -28 -11 22 9 59 17 33 18 33 24 10 3 -13 9 -21 11 -18 3 3 1 20
-4 39 -5 18 -6 38 -3 44 7 11 34 -78 37 -121z"/>
<path d="M4935 4904 c-74 -38 -67 -44 47 -44 155 0 148 -19 -8 -22 -91 -2
-129 -7 -132 -15 -3 -10 22 -13 102 -13 151 0 146 -19 -6 -22 -147 -4 -163
-22 -23 -26 52 -1 95 -7 95 -12 0 -6 -17 -10 -37 -10 l-38 0 25 -20 c17 -13
41 -20 75 -20 47 0 51 3 65 33 27 58 108 46 124 -19 5 -18 13 -24 34 -24 15 0
38 -3 52 -6 24 -6 23 -4 -11 32 -20 22 -48 57 -62 79 -36 58 -72 94 -112 111
-46 19 -152 18 -190 -2z"/>
<path d="M4979 4657 c-14 -12 -34 -27 -44 -32 -17 -10 -17 -13 -1 -43 24 -47
8 -39 -54 24 l-55 56 -87 -4 c-71 -3 -97 -9 -144 -34 -85 -43 -81 -53 23 -57
48 -1 -195 -4 -542 -6 -732 -3 -741 -4 -751 -14 -4 -4 2 -18 14 -30 l23 -22
509 -5 510 -5 27 -27 28 -28 -483 0 c-455 0 -483 -1 -480 -17 2 -10 19 -26 38
-35 32 -16 74 -18 428 -18 l392 0 54 30 53 30 252 -2 253 -3 -87 -38 -87 -37
-54 26 c-64 31 -162 42 -229 25 -57 -14 -125 -43 -125 -53 0 -4 26 -21 58 -37
l57 -29 40 21 c65 33 155 34 247 3 67 -22 84 -24 127 -16 133 25 211 105 211
216 0 39 5 51 34 80 19 19 42 34 52 34 46 0 -8 21 -166 66 -8 2 -27 -6 -41
-19z"/>
<path d="M4548 4278 c-46 -12 -49 -30 -8 -45 17 -6 30 -15 30 -20 0 -4 -48
-41 -105 -81 -89 -62 -110 -73 -134 -67 -27 6 -29 3 -35 -30 -7 -38 -33 -55
-82 -55 -15 0 -24 -6 -24 -15 0 -11 11 -15 39 -15 33 0 62 16 193 106 84 58
161 113 171 122 17 15 24 13 93 -21 l74 -37 142 0 c121 0 143 -2 153 -17 12
-16 14 -16 38 0 36 24 56 21 89 -10 22 -21 31 -24 40 -15 10 10 5 19 -20 45
l-32 32 -189 3 -189 3 -6 50 c-6 45 -10 52 -41 65 -39 16 -141 17 -197 2z"/>
<path d="M3446 3679 c-3 -17 -6 -58 -6 -90 0 -55 2 -59 23 -59 17 0 28 12 47
53 l25 52 58 3 58 3 -3 -245 c-2 -134 -6 -248 -10 -251 -4 -4 -22 -10 -40 -14
-19 -4 -34 -14 -36 -24 -3 -15 11 -17 152 -17 127 0 156 3 156 14 0 8 -19 20
-42 28 l-43 13 -3 248 -2 247 47 0 c27 0 53 -4 59 -8 15 -9 44 -67 44 -87 0
-17 45 -22 55 -6 3 6 3 46 -1 90 -7 81 -7 81 -35 81 -16 0 -29 -4 -29 -10 0
-6 -75 -10 -204 -10 -126 0 -207 4 -211 10 -3 6 -17 10 -29 10 -18 0 -25 -7
-30 -31z"/>
<path d="M3129 3693 c-10 -2 -46 -82 -99 -216 -129 -328 -140 -349 -195 -352
-5 0 -11 -8 -13 -17 -3 -16 7 -18 112 -18 93 0 116 3 116 14 0 8 -13 19 -30
25 -35 12 -37 31 -11 106 l18 50 80 3 80 3 21 -57 c29 -74 29 -102 0 -106 -13
-2 -24 -11 -26 -20 -3 -16 8 -18 132 -18 149 0 167 8 99 45 -34 19 -40 29 -90
165 -158 432 -145 406 -194 393z"/>
<path d="M4880 3688 c-70 -20 -120 -88 -120 -164 0 -77 44 -130 156 -187 28
-14 66 -41 84 -58 28 -29 32 -37 27 -73 -8 -56 -47 -90 -95 -82 -44 7 -98 57
-124 114 -21 46 -21 46 -48 32 -19 -10 -19 -51 1 -131 8 -33 14 -38 53 -48 62
-15 177 -14 217 3 80 33 119 88 119 166 0 84 -41 130 -179 199 -97 49 -128
126 -70 174 50 41 129 10 159 -62 9 -22 19 -31 36 -31 27 0 29 12 18 93 -6 44
-8 46 -50 56 -52 13 -136 13 -184 -1z"/>
<path d="M4070 3670 c0 -13 7 -20 18 -20 43 0 79 -75 237 -497 26 -70 28 -73
59 -73 l32 0 83 213 c122 307 135 332 182 351 21 9 39 23 39 31 0 13 -20 15
-120 15 -113 0 -120 -1 -120 -20 0 -13 7 -20 18 -20 10 0 26 -6 36 -13 20 -15
17 -29 -68 -256 -34 -92 -42 -108 -50 -100 -7 9 -126 332 -126 344 0 7 14 18
30 24 17 5 30 17 30 25 0 14 -20 16 -140 16 -133 0 -140 -1 -140 -20z"/>
</g>
</svg>
